<svg width="25" height="25" viewBox="0 0 25 25" xmlns="http://www.w3.org/2000/svg" fill="none"><path d="M23.438 4.167h-21.875c-.861 0-1.563.701-1.563 1.563v13.542c0 .861.701 1.563 1.563 1.563h21.875c.861 0 1.563-.701 1.563-1.563v-13.542c0-.861-.701-1.563-1.563-1.563zm.521 15.104c0 .287-.233.521-.521.521h-21.875c-.288 0-.521-.233-.521-.521v-13.542c0-.288.233-.521.521-.521h21.875c.288 0 .521.233.521.521v13.542zM24.639 4.732c-.169-.233-.496-.285-.727-.117l-10.493 7.585c-.55.399-1.289.4-1.84-.001l-10.489-7.584c-.233-.169-.559-.117-.727.117-.168.233-.116.559.117.728l10.488 7.583c.458.333.995.5 1.532.5.536 0 1.073-.167 1.53-.5l10.492-7.584c.232-.168.285-.494.117-.727zM11.528 12.194c-.17-.232-.494-.285-.728-.116l-10.305 7.48c-.232.17-.284.495-.116.728.102.141.26.215.422.215.105 0 .212-.032.306-.099l10.305-7.48c.232-.17.284-.495.116-.728zM24.506 19.558l-10.304-7.48c-.235-.17-.559-.118-.728.116-.169.233-.117.558.116.728l10.304 7.48c.092.067.199.099.305.099.162 0 .321-.074.423-.215.169-.233.117-.558-.115-.728z" fill="#29829A"/></svg>