<svg width="18" height="18" viewBox="0 0 18 18" xmlns="http://www.w3.org/2000/svg" fill="none"><path d="M13.967 10.943c-.055-.088-.203-.141-.425-.248-.221-.106-1.31-.619-1.513-.69-.203-.071-.35-.106-.498.106-.148.212-.572.69-.701.831-.129.141-.259.159-.48.053-.221-.106-.935-.33-1.781-1.052-.658-.562-1.103-1.256-1.232-1.469-.129-.212-.013-.327.097-.432l.332-.372c.113-.123.149-.211.224-.353.074-.141.037-.265-.019-.372-.056-.106-.499-1.149-.683-1.574-.18-.413-.363-.357-.499-.364l-.425-.007c-.148 0-.387.053-.59.265-.203.213-.775.725-.775 1.769s.794 2.052.904 2.193c.111.141 1.561 2.283 3.782 3.201.528.218.941.349 1.262.447.531.161 1.013.138 1.395.084.425-.061 1.31-.513 1.495-1.008.185-.496.185-.92.129-1.009z" fill="#DB063D"/><circle cx="9" cy="9" r="8.5" stroke="#DB063D"/></svg>