<svg width="25" height="25" viewBox="0 0 25 25" xmlns="http://www.w3.org/2000/svg" fill="none"><path d="M12.5 0c-4.882 0-8.854 3.972-8.854 8.854 0 4.722 8.095 15.483 8.438 15.94.099.13.252.206.416.206.163 0 .317-.076.416-.206.344-.456 8.438-11.218 8.438-15.94 0-4.882-3.972-8.854-8.854-8.854zm0 23.603c-1.672-2.288-7.813-10.949-7.813-14.749 0-4.308 3.504-7.813 7.813-7.813 4.308 0 7.813 3.504 7.813 7.813 0 3.798-6.141 12.46-7.813 14.749zM12.5 4.167c-2.584 0-4.688 2.103-4.688 4.688 0 2.584 2.103 4.687 4.688 4.687 2.584 0 4.688-2.103 4.688-4.687s-2.103-4.688-4.688-4.688zm0 8.333c-2.01 0-3.646-1.635-3.646-3.646 0-2.01 1.635-3.646 3.646-3.646 2.01 0 3.646 1.635 3.646 3.646 0 2.01-1.635 3.646-3.646 3.646z" fill="#29829A"/></svg>