<svg width="25" height="25" viewBox="0 0 25 25" xmlns="http://www.w3.org/2000/svg" fill="none"><path d="M20.52 14.114c-.48-.498-1.059-.764-1.673-.764-.609 0-1.193.261-1.693.759l-1.564 1.552-.381-.197c-.178-.089-.347-.173-.49-.261-1.465-.927-2.797-2.134-4.074-3.696-.619-.779-1.035-1.434-1.337-2.099.406-.37.782-.754 1.148-1.124l.416-.419c1.04-1.035 1.04-2.375 0-3.41l-1.351-1.345-.46-.468c-.297-.306-.609-.621-.931-.917-.48-.473-1.054-.724-1.658-.724-.604 0-1.188.251-1.683.724l-.01.01-1.683 1.69c-.634.631-.995 1.4-1.074 2.292-.119 1.439.307 2.78.634 3.657.802 2.154 2 4.15 3.787 6.288 2.168 2.578 4.777 4.613 7.757 6.047 1.139.537 2.658 1.173 4.356 1.281l.312.01c1.144 0 2.104-.409 2.856-1.222l.02-.025c.258-.31.555-.591.866-.892.213-.202.431-.414.644-.636.49-.508.747-1.099.747-1.705 0-.611-.262-1.198-.762-1.691l-2.718-2.715zm1.772 5.19c-.193.207-.391.394-.604.601-.322.306-.648.626-.955.986-.5.532-1.089.784-1.861.784l-.228-.005c-1.47-.094-2.837-.665-3.861-1.153-2.802-1.35-5.262-3.267-7.307-5.697-1.688-2.026-2.817-3.898-3.564-5.909-.46-1.227-.629-2.183-.554-3.085.05-.577.272-1.055.683-1.464l1.688-1.681c.243-.227.5-.35.752-.35.312 0 .564.187.723.345l.015.015c.302.281.589.572.891.882l.47.478 1.351 1.345c.525.522.525 1.005 0 1.528l-.426.424c-.416.424-.812.818-1.243 1.203l-.025.025c-.426.424-.347.838-.257 1.119l.015.044c.351.848.847 1.646 1.599 2.597l.005.005c1.366 1.676 2.807 2.982 4.396 3.982.203.128.411.232.609.33.178.089.346.172.49.261l.059.035c.168.084.327.123.49.123.411 0 .668-.256.752-.34l1.693-1.686c.168-.168.436-.37.747-.37.307 0 .559.192.713.36l.01.01 2.728 2.715c.51.503.51 1.02.005 1.543z" fill="#DB063D"/></svg>